<mxfile host="app.diagrams.net" modified="2023-08-18T05:41:49.948Z" agent="Mozilla/5.0 (Macintosh; Intel Mac OS X 10_15_7) AppleWebKit/537.36 (KHTML, like Gecko) Chrome/115.0.0.0 Safari/537.36" version="21.6.8" etag="vIc2gF7b4BDl_zy8-xlS" type="github">
  <diagram name="第 1 页" id="B4ZyqknMrM9JKnedpI74">
    <mxGraphModel>
      <root>
        <mxCell id="0" />
        <mxCell id="1" parent="0" />
      </root>
    </mxGraphModel>
  </diagram>
</mxfile>
